<svg id="Layer_1" data-name="Layer 1" xmlns="http://www.w3.org/2000/svg" viewBox="0 0 32.5 32.81"><defs><style>.cls-1{fill:#99191f;}</style></defs><title>iconos</title><path class="cls-1" d="M16.58,12.58a3.87,3.87,0,1,0,3.86,3.87A3.87,3.87,0,0,0,16.58,12.58Z"/><path class="cls-1" d="M20,6.55H12.47A6.07,6.07,0,0,0,6.4,12.62v7.57a6.07,6.07,0,0,0,6.07,6.07H20a6.07,6.07,0,0,0,6.07-6.07V12.62A6.07,6.07,0,0,0,20,6.55ZM16.58,22.87A6.43,6.43,0,1,1,23,16.45,6.43,6.43,0,0,1,16.58,22.87Zm6-11.31a1.64,1.64,0,1,1,1.64-1.64A1.63,1.63,0,0,1,22.55,11.56Z"/><path class="cls-1" d="M25.78.24h-19A6.64,6.64,0,0,0,.09,6.88V25.93a6.64,6.64,0,0,0,6.64,6.64H25.78a6.64,6.64,0,0,0,6.64-6.64v-19A6.64,6.64,0,0,0,25.78.24Zm2.66,20.84a7.51,7.51,0,0,1-7.51,7.51H11.57a7.51,7.51,0,0,1-7.51-7.51V11.73a7.52,7.52,0,0,1,7.51-7.52h9.36a7.52,7.52,0,0,1,7.51,7.52Z"/></svg>