<svg id="Layer_1" data-name="Layer 1" xmlns="http://www.w3.org/2000/svg" viewBox="0 0 32.5 32.81"><defs><style>.cls-1{fill:#99191f;}</style></defs><title>iconos</title><path class="cls-1" d="M25.78.24h-19A6.64,6.64,0,0,0,.09,6.88V25.93a6.64,6.64,0,0,0,6.64,6.64H25.78a6.64,6.64,0,0,0,6.64-6.64v-19A6.64,6.64,0,0,0,25.78.24Zm-16,27.32h-5V11.8h5ZM7.26,9.62A2.81,2.81,0,0,1,4.4,6.77,2.81,2.81,0,0,1,7.26,3.92a2.81,2.81,0,0,1,2.86,2.85A2.81,2.81,0,0,1,7.26,9.62ZM28,27.58h-5V19c0-2.54-1.08-3.33-2.48-3.33S17.69,16.75,17.69,19v8.55h-5V11.81H17.5V14h.06a5.42,5.42,0,0,1,4.72-2.63C25.05,11.37,28,13,28,17.83Z"/></svg>